<mxfile host="app.diagrams.net" modified="2024-03-24T19:55:03.354Z" agent="Mozilla/5.0 (Windows NT 10.0; Win64; x64) AppleWebKit/537.36 (KHTML, like Gecko) Chrome/123.0.0.0 Safari/537.36" etag="6QKGI3M4BEmcdaborcMj" version="24.1.0" type="device">
  <diagram id="C5RBs43oDa-KdzZeNtuy" name="Page-1">
    <mxGraphModel dx="2206" dy="1135" grid="1" gridSize="10" guides="1" tooltips="1" connect="1" arrows="1" fold="1" page="1" pageScale="1" pageWidth="827" pageHeight="1169" math="0" shadow="0">
      <root>
        <mxCell id="WIyWlLk6GJQsqaUBKTNV-0" />
        <mxCell id="WIyWlLk6GJQsqaUBKTNV-1" parent="WIyWlLk6GJQsqaUBKTNV-0" />
        <mxCell id="seithgZvxNiS-wUwFHZv-0" value="&lt;p style=&quot;margin: 4px 0px 0px; text-align: center;&quot;&gt;&lt;font style=&quot;font-size: 12px;&quot;&gt;&lt;i style=&quot;&quot;&gt;&amp;lt;&amp;lt;Interface&amp;gt;&amp;gt;&lt;/i&gt;&lt;br&gt;&lt;b style=&quot;&quot;&gt;UserInterface&lt;/b&gt;&lt;/font&gt;&lt;/p&gt;&lt;hr size=&quot;1&quot; style=&quot;border-style: solid;&quot;&gt;&lt;p style=&quot;margin: 0px 0px 0px 4px;&quot;&gt;&lt;font style=&quot;font-size: 12px;&quot;&gt;+ bind_controller(Path): None&lt;/font&gt;&lt;/p&gt;&lt;p style=&quot;margin: 0px 0px 0px 4px;&quot;&gt;&lt;font style=&quot;font-size: 12px;&quot;&gt;+ start(Path): None&lt;/font&gt;&lt;/p&gt;&lt;p style=&quot;margin: 0px 0px 0px 4px;&quot;&gt;&lt;span style=&quot;background-color: initial;&quot;&gt;&lt;font style=&quot;font-size: 12px;&quot;&gt;+ update_stamp_pdf(str): None&lt;/font&gt;&lt;/span&gt;&lt;/p&gt;&lt;p style=&quot;margin: 0px 0px 0px 4px;&quot;&gt;&lt;span style=&quot;background-color: initial;&quot;&gt;&lt;font style=&quot;font-size: 12px;&quot;&gt;+ update_result_directory(str): None&lt;/font&gt;&lt;/span&gt;&lt;/p&gt;&lt;p style=&quot;margin: 0px 0px 0px 4px;&quot;&gt;&lt;font style=&quot;font-size: 12px;&quot;&gt;+ update_filename_suffix(str): None&lt;/font&gt;&lt;/p&gt;&lt;p style=&quot;margin: 0px 0px 0px 4px;&quot;&gt;&lt;font style=&quot;font-size: 12px;&quot;&gt;+ get_filename_suffix(): str&lt;/font&gt;&lt;/p&gt;&lt;p style=&quot;margin: 0px 0px 0px 4px;&quot;&gt;&lt;font style=&quot;font-size: 12px;&quot;&gt;+ update_files_to_process(str): None&lt;/font&gt;&lt;/p&gt;&lt;p style=&quot;margin: 0px 0px 0px 4px;&quot;&gt;&lt;font style=&quot;font-size: 12px;&quot;&gt;+ clear_files_to_process(): None&lt;/font&gt;&lt;/p&gt;&lt;p style=&quot;margin: 0px 0px 0px 4px;&quot;&gt;&lt;font style=&quot;font-size: 12px;&quot;&gt;+ update_status_label(str): None&lt;/font&gt;&lt;/p&gt;&lt;p style=&quot;margin: 0px 0px 0px 4px;&quot;&gt;&lt;font style=&quot;font-size: 12px;&quot;&gt;+ show_info(str, str): None&lt;/font&gt;&lt;/p&gt;&lt;p style=&quot;margin: 0px 0px 0px 4px;&quot;&gt;&lt;font style=&quot;font-size: 12px;&quot;&gt;+ show_warning(str, str): None&lt;/font&gt;&lt;/p&gt;&lt;p style=&quot;margin: 0px 0px 0px 4px;&quot;&gt;&lt;font style=&quot;font-size: 12px;&quot;&gt;+ select_file(Iterable[tuple[str, str | list[str] | tuple[str, ...]]] | None = ...): str&lt;/font&gt;&lt;/p&gt;&lt;p style=&quot;margin: 0px 0px 0px 4px;&quot;&gt;&lt;font style=&quot;font-size: 12px;&quot;&gt;+ select_files(Iterable[tuple[str, str | list[str] | tuple[str, ...]]] | None = ...): (tuple[str, ...] | Literal[&#39;&#39;])&lt;/font&gt;&lt;/p&gt;&lt;p style=&quot;margin: 0px 0px 0px 4px;&quot;&gt;&lt;font style=&quot;font-size: 12px;&quot;&gt;+ select_directory(): str&lt;/font&gt;&lt;/p&gt;&lt;p style=&quot;margin: 0px 0px 0px 4px;&quot;&gt;&lt;font style=&quot;font-size: 12px;&quot;&gt;+ handle_error(DisplayableError): None&lt;/font&gt;&lt;/p&gt;" style="verticalAlign=top;align=left;overflow=fill;html=1;whiteSpace=wrap;" parent="WIyWlLk6GJQsqaUBKTNV-1" vertex="1">
          <mxGeometry x="520" y="40" width="520" height="270" as="geometry" />
        </mxCell>
        <mxCell id="dMBVIur_Aa2STcFH-dJI-0" value="TkGraphicalInterface" style="swimlane;fontStyle=1;align=center;verticalAlign=top;childLayout=stackLayout;horizontal=1;startSize=26;horizontalStack=0;resizeParent=1;resizeParentMax=0;resizeLast=0;collapsible=1;marginBottom=0;whiteSpace=wrap;html=1;" parent="WIyWlLk6GJQsqaUBKTNV-1" vertex="1">
          <mxGeometry x="40" y="420" width="520" height="780" as="geometry">
            <mxRectangle x="40" y="420" width="150" height="30" as="alternateBounds" />
          </mxGeometry>
        </mxCell>
        <mxCell id="dMBVIur_Aa2STcFH-dJI-1" value="&lt;div&gt;+ HOR_PD: int&lt;br&gt;&lt;/div&gt;&lt;div&gt;+ VERT_PD: int&lt;/div&gt;&lt;div&gt;&lt;div&gt;+ resource_path: Path&lt;/div&gt;&lt;div&gt;+ root: tkinter.Tk&lt;/div&gt;&lt;div&gt;+ main_frame: tkinter.Frame&lt;/div&gt;&lt;div&gt;+ stamp_label: tkinter.Label&lt;/div&gt;&lt;div&gt;+ select_stamp_button: tkinter.Button&lt;/div&gt;&lt;div&gt;+ result_directory_label: tkinter.Label&lt;/div&gt;&lt;div&gt;+ select_result_directory_button: tkinter.Button&lt;/div&gt;&lt;div&gt;+ suffix_label: tkinter.Label&lt;/div&gt;&lt;div&gt;+ suffix_entry: tkinter.Entry&lt;/div&gt;&lt;div&gt;+ file_listbox: tkinter.Listbox&lt;/div&gt;&lt;div&gt;+ buttons_frame: tkinter.Frame&lt;/div&gt;&lt;div&gt;+ select_button: tkinter.Button&lt;/div&gt;&lt;div&gt;+ info_logo_image: tkinter.PhotoImage&lt;/div&gt;&lt;div&gt;+ select_info_button: tkinter.Button&lt;/div&gt;&lt;div&gt;+ clear_button: tkinter.Button&lt;/div&gt;&lt;div&gt;+ process_button: tkinter.Button&lt;/div&gt;&lt;div&gt;+ status_label: tkinter.Label&lt;/div&gt;&lt;div&gt;+ error_label: tkinter.Label&lt;/div&gt;&lt;div&gt;+ error_detail_label: tkinter.Label&lt;/div&gt;&lt;div&gt;+ author_label: tkinter.Label&lt;/div&gt;&lt;/div&gt;&lt;div&gt;+ controller: InterfaceController&lt;/div&gt;" style="text;strokeColor=none;fillColor=none;align=left;verticalAlign=top;spacingLeft=4;spacingRight=4;overflow=hidden;rotatable=0;points=[[0,0.5],[1,0.5]];portConstraint=eastwest;whiteSpace=wrap;html=1;" parent="dMBVIur_Aa2STcFH-dJI-0" vertex="1">
          <mxGeometry y="26" width="520" height="344" as="geometry" />
        </mxCell>
        <mxCell id="dMBVIur_Aa2STcFH-dJI-8" value="" style="line;strokeWidth=1;fillColor=none;align=left;verticalAlign=middle;spacingTop=-1;spacingLeft=3;spacingRight=3;rotatable=0;labelPosition=right;points=[];portConstraint=eastwest;strokeColor=inherit;" parent="dMBVIur_Aa2STcFH-dJI-0" vertex="1">
          <mxGeometry y="370" width="520" height="8" as="geometry" />
        </mxCell>
        <mxCell id="dMBVIur_Aa2STcFH-dJI-6" value="&lt;p style=&quot;margin: 0px 0px 0px 4px;&quot;&gt;+ __init__(Path): None&lt;/p&gt;&lt;p style=&quot;margin: 0px 0px 0px 4px;&quot;&gt;+&amp;nbsp;_create_stamp_PDF_row(): None&lt;/p&gt;&lt;p style=&quot;margin: 0px 0px 0px 4px;&quot;&gt;+&amp;nbsp;_create_result_directory_row(): None&lt;/p&gt;&lt;p style=&quot;margin: 0px 0px 0px 4px;&quot;&gt;+&amp;nbsp;_create_suffix_input_row(): None&lt;/p&gt;&lt;p style=&quot;margin: 0px 0px 0px 4px;&quot;&gt;+&amp;nbsp;_create_file_listbox(): None&lt;/p&gt;&lt;p style=&quot;margin: 0px 0px 0px 4px;&quot;&gt;+&amp;nbsp;_create_file_buttons(): None&lt;/p&gt;&lt;p style=&quot;margin: 0px 0px 0px 4px;&quot;&gt;+&amp;nbsp;_create_PDF_selection_file_btn(): None&lt;/p&gt;&lt;p style=&quot;margin: 0px 0px 0px 4px;&quot;&gt;+&amp;nbsp;_create_info_file_btn(): None&lt;/p&gt;&lt;p style=&quot;margin: 0px 0px 0px 4px;&quot;&gt;+&amp;nbsp;_create_clear_files_btn(): None&lt;/p&gt;&lt;p style=&quot;margin: 0px 0px 0px 4px;&quot;&gt;+&amp;nbsp;_create_process_files_btn(): None&lt;/p&gt;" style="text;strokeColor=none;fillColor=none;align=left;verticalAlign=top;spacingLeft=4;spacingRight=4;overflow=hidden;rotatable=0;points=[[0,0.5],[1,0.5]];portConstraint=eastwest;whiteSpace=wrap;html=1;" parent="dMBVIur_Aa2STcFH-dJI-0" vertex="1">
          <mxGeometry y="378" width="520" height="162" as="geometry" />
        </mxCell>
        <mxCell id="dMBVIur_Aa2STcFH-dJI-7" value="" style="line;strokeWidth=1;fillColor=none;align=left;verticalAlign=middle;spacingTop=-1;spacingLeft=3;spacingRight=3;rotatable=0;labelPosition=right;points=[];portConstraint=eastwest;strokeColor=inherit;" parent="dMBVIur_Aa2STcFH-dJI-0" vertex="1">
          <mxGeometry y="540" width="520" height="8" as="geometry" />
        </mxCell>
        <mxCell id="dMBVIur_Aa2STcFH-dJI-3" value="&lt;p style=&quot;margin: 0px 0px 0px 4px;&quot;&gt;+ bind_controller(Path): None&lt;/p&gt;&lt;p style=&quot;margin: 0px 0px 0px 4px;&quot;&gt;+ start(Path): None&lt;/p&gt;&lt;p style=&quot;margin: 0px 0px 0px 4px;&quot;&gt;&lt;span style=&quot;background-color: initial;&quot;&gt;+ update_stamp_pdf(str): None&lt;/span&gt;&lt;/p&gt;&lt;p style=&quot;margin: 0px 0px 0px 4px;&quot;&gt;&lt;span style=&quot;background-color: initial;&quot;&gt;+ update_result_directory(str): None&lt;/span&gt;&lt;/p&gt;&lt;p style=&quot;margin: 0px 0px 0px 4px;&quot;&gt;+ update_filename_suffix(str): None&lt;/p&gt;&lt;p style=&quot;margin: 0px 0px 0px 4px;&quot;&gt;+ get_filename_suffix(): str&lt;/p&gt;&lt;p style=&quot;margin: 0px 0px 0px 4px;&quot;&gt;+ update_files_to_process(str): None&lt;/p&gt;&lt;p style=&quot;margin: 0px 0px 0px 4px;&quot;&gt;+ clear_files_to_process(): None&lt;/p&gt;&lt;p style=&quot;margin: 0px 0px 0px 4px;&quot;&gt;+ update_status_label(str): None&lt;/p&gt;&lt;p style=&quot;margin: 0px 0px 0px 4px;&quot;&gt;+ show_info(str, str): None&lt;/p&gt;&lt;p style=&quot;margin: 0px 0px 0px 4px;&quot;&gt;+ show_warning(str, str): None&lt;/p&gt;&lt;p style=&quot;margin: 0px 0px 0px 4px;&quot;&gt;+ select_file(Iterable[tuple[str, str | list[str] | tuple[str, ...]]] | None = ...): str&lt;/p&gt;&lt;p style=&quot;margin: 0px 0px 0px 4px;&quot;&gt;+ select_files(Iterable[tuple[str, str | list[str] | tuple[str, ...]]] | None = ...): (tuple[str, ...] | Literal[&#39;&#39;])&lt;/p&gt;&lt;p style=&quot;margin: 0px 0px 0px 4px;&quot;&gt;+ select_directory(): str&lt;/p&gt;&lt;p style=&quot;margin: 0px 0px 0px 4px;&quot;&gt;+ handle_error(DisplayableError): None&lt;/p&gt;" style="text;strokeColor=none;fillColor=none;align=left;verticalAlign=top;spacingLeft=4;spacingRight=4;overflow=hidden;rotatable=0;points=[[0,0.5],[1,0.5]];portConstraint=eastwest;whiteSpace=wrap;html=1;" parent="dMBVIur_Aa2STcFH-dJI-0" vertex="1">
          <mxGeometry y="548" width="520" height="232" as="geometry" />
        </mxCell>
        <mxCell id="dMBVIur_Aa2STcFH-dJI-5" value="" style="endArrow=block;dashed=1;endFill=0;endSize=12;html=1;rounded=0;exitX=0.5;exitY=1;exitDx=0;exitDy=0;entryX=0.5;entryY=0;entryDx=0;entryDy=0;" parent="WIyWlLk6GJQsqaUBKTNV-1" source="seithgZvxNiS-wUwFHZv-0" target="dMBVIur_Aa2STcFH-dJI-0" edge="1">
          <mxGeometry width="160" relative="1" as="geometry">
            <mxPoint x="350" y="452.5" as="sourcePoint" />
            <mxPoint x="510" y="452.5" as="targetPoint" />
          </mxGeometry>
        </mxCell>
        <mxCell id="PhZd0l24GyQ8YQdEIMDO-39" value="Implements" style="edgeLabel;html=1;align=center;verticalAlign=middle;resizable=0;points=[];" parent="dMBVIur_Aa2STcFH-dJI-5" vertex="1" connectable="0">
          <mxGeometry x="0.0564" y="2" relative="1" as="geometry">
            <mxPoint x="-9" y="-2" as="offset" />
          </mxGeometry>
        </mxCell>
        <mxCell id="dMBVIur_Aa2STcFH-dJI-17" style="edgeStyle=orthogonalEdgeStyle;rounded=0;orthogonalLoop=1;jettySize=auto;html=1;exitX=0.5;exitY=1;exitDx=0;exitDy=0;entryX=0.5;entryY=0;entryDx=0;entryDy=0;" parent="WIyWlLk6GJQsqaUBKTNV-1" source="dMBVIur_Aa2STcFH-dJI-16" target="dMBVIur_Aa2STcFH-dJI-0" edge="1">
          <mxGeometry relative="1" as="geometry" />
        </mxCell>
        <mxCell id="PhZd0l24GyQ8YQdEIMDO-37" value="starts" style="edgeLabel;html=1;align=center;verticalAlign=middle;resizable=0;points=[];" parent="dMBVIur_Aa2STcFH-dJI-17" vertex="1" connectable="0">
          <mxGeometry x="-0.5951" y="-1" relative="1" as="geometry">
            <mxPoint x="33" y="183" as="offset" />
          </mxGeometry>
        </mxCell>
        <mxCell id="PhZd0l24GyQ8YQdEIMDO-38" value="1" style="edgeLabel;html=1;align=center;verticalAlign=middle;resizable=0;points=[];" parent="dMBVIur_Aa2STcFH-dJI-17" vertex="1" connectable="0">
          <mxGeometry x="0.0665" relative="1" as="geometry">
            <mxPoint x="-20" y="91" as="offset" />
          </mxGeometry>
        </mxCell>
        <mxCell id="dMBVIur_Aa2STcFH-dJI-16" value="Main&lt;div&gt;&lt;br&gt;&lt;/div&gt;&lt;div&gt;&lt;br&gt;&lt;/div&gt;&lt;div&gt;&lt;span style=&quot;text-align: left;&quot;&gt;#&amp;nbsp;&lt;/span&gt;&lt;span style=&quot;text-align: left; background-color: initial;&quot;&gt;Start user interface&lt;/span&gt;&lt;br&gt;&lt;/div&gt;" style="shape=module;align=left;spacingLeft=20;align=center;verticalAlign=top;whiteSpace=wrap;html=1;" parent="WIyWlLk6GJQsqaUBKTNV-1" vertex="1">
          <mxGeometry x="165" y="40" width="270" height="100" as="geometry" />
        </mxCell>
        <mxCell id="dMBVIur_Aa2STcFH-dJI-18" value="InterfaceController" style="swimlane;fontStyle=1;align=center;verticalAlign=top;childLayout=stackLayout;horizontal=1;startSize=26;horizontalStack=0;resizeParent=1;resizeParentMax=0;resizeLast=0;collapsible=1;marginBottom=0;whiteSpace=wrap;html=1;" parent="WIyWlLk6GJQsqaUBKTNV-1" vertex="1">
          <mxGeometry x="970" y="420" width="320" height="260" as="geometry">
            <mxRectangle x="970" y="420" width="150" height="30" as="alternateBounds" />
          </mxGeometry>
        </mxCell>
        <mxCell id="dMBVIur_Aa2STcFH-dJI-19" value="+ stamp_pdf: Path | None = None&lt;div&gt;+ result_directory: Path | None = None&lt;/div&gt;&lt;div&gt;+&amp;nbsp;file_paths: list[Path] = []&lt;/div&gt;&lt;div&gt;+ ui: UserInterface&lt;/div&gt;&lt;div&gt;+ defaults: Defaults&lt;/div&gt;&lt;div&gt;+ PDFProcessor: PDFProcessor&lt;/div&gt;" style="text;strokeColor=none;fillColor=none;align=left;verticalAlign=top;spacingLeft=4;spacingRight=4;overflow=hidden;rotatable=0;points=[[0,0.5],[1,0.5]];portConstraint=eastwest;whiteSpace=wrap;html=1;" parent="dMBVIur_Aa2STcFH-dJI-18" vertex="1">
          <mxGeometry y="26" width="320" height="94" as="geometry" />
        </mxCell>
        <mxCell id="dMBVIur_Aa2STcFH-dJI-20" value="" style="line;strokeWidth=1;fillColor=none;align=left;verticalAlign=middle;spacingTop=-1;spacingLeft=3;spacingRight=3;rotatable=0;labelPosition=right;points=[];portConstraint=eastwest;strokeColor=inherit;" parent="dMBVIur_Aa2STcFH-dJI-18" vertex="1">
          <mxGeometry y="120" width="320" height="8" as="geometry" />
        </mxCell>
        <mxCell id="dMBVIur_Aa2STcFH-dJI-21" value="&lt;p style=&quot;margin: 0px 0px 0px 4px;&quot;&gt;+ __init__(UserInterface, Path): None&lt;/p&gt;&lt;p style=&quot;margin: 0px 0px 0px 4px;&quot;&gt;+ select_stamp_pdf(): None&lt;/p&gt;&lt;p style=&quot;margin: 0px 0px 0px 4px;&quot;&gt;+&amp;nbsp;select_result_directory(): None&lt;/p&gt;&lt;p style=&quot;margin: 0px 0px 0px 4px;&quot;&gt;+&amp;nbsp;select_files(): None&lt;/p&gt;&lt;p style=&quot;margin: 0px 0px 0px 4px;&quot;&gt;+&amp;nbsp;show_info_select_files(): None&lt;/p&gt;&lt;p style=&quot;margin: 0px 0px 0px 4px;&quot;&gt;+&amp;nbsp;clear_files(): None&lt;/p&gt;&lt;p style=&quot;margin: 0px 0px 0px 4px;&quot;&gt;+&amp;nbsp;process_files(): None&lt;/p&gt;&lt;p style=&quot;margin: 0px 0px 0px 4px;&quot;&gt;+&amp;nbsp;_process_files_core(Path, Path, str, list[Path]): None&lt;/p&gt;" style="text;strokeColor=none;fillColor=none;align=left;verticalAlign=top;spacingLeft=4;spacingRight=4;overflow=hidden;rotatable=0;points=[[0,0.5],[1,0.5]];portConstraint=eastwest;whiteSpace=wrap;html=1;" parent="dMBVIur_Aa2STcFH-dJI-18" vertex="1">
          <mxGeometry y="128" width="320" height="132" as="geometry" />
        </mxCell>
        <mxCell id="PhZd0l24GyQ8YQdEIMDO-4" value="return" style="html=1;verticalAlign=bottom;endArrow=open;dashed=1;endSize=8;curved=0;rounded=0;entryX=0.5;entryY=1;entryDx=0;entryDy=0;exitX=0.25;exitY=0;exitDx=0;exitDy=0;" parent="WIyWlLk6GJQsqaUBKTNV-1" source="dMBVIur_Aa2STcFH-dJI-18" target="seithgZvxNiS-wUwFHZv-0" edge="1">
          <mxGeometry x="-0.0992" y="22" relative="1" as="geometry">
            <mxPoint x="720" y="440" as="sourcePoint" />
            <mxPoint x="640" y="440" as="targetPoint" />
            <mxPoint as="offset" />
          </mxGeometry>
        </mxCell>
        <mxCell id="PhZd0l24GyQ8YQdEIMDO-8" value="dispatch" style="html=1;verticalAlign=bottom;startArrow=oval;startFill=1;endArrow=block;startSize=8;curved=0;rounded=0;exitX=0.75;exitY=0;exitDx=0;exitDy=0;entryX=0.5;entryY=1;entryDx=0;entryDy=0;" parent="WIyWlLk6GJQsqaUBKTNV-1" source="dMBVIur_Aa2STcFH-dJI-18" target="seithgZvxNiS-wUwFHZv-0" edge="1">
          <mxGeometry x="-0.0703" y="-8" width="60" relative="1" as="geometry">
            <mxPoint x="700" y="530" as="sourcePoint" />
            <mxPoint x="870" y="370" as="targetPoint" />
            <mxPoint as="offset" />
          </mxGeometry>
        </mxCell>
        <mxCell id="PhZd0l24GyQ8YQdEIMDO-9" value="Defaults" style="swimlane;fontStyle=1;align=center;verticalAlign=top;childLayout=stackLayout;horizontal=1;startSize=26;horizontalStack=0;resizeParent=1;resizeParentMax=0;resizeLast=0;collapsible=1;marginBottom=0;whiteSpace=wrap;html=1;" parent="WIyWlLk6GJQsqaUBKTNV-1" vertex="1">
          <mxGeometry x="640" y="760" width="400" height="160" as="geometry">
            <mxRectangle x="640" y="760" width="150" height="30" as="alternateBounds" />
          </mxGeometry>
        </mxCell>
        <mxCell id="PhZd0l24GyQ8YQdEIMDO-10" value="+ root: dict&lt;div&gt;+ filepath: Path&lt;/div&gt;" style="text;strokeColor=none;fillColor=none;align=left;verticalAlign=top;spacingLeft=4;spacingRight=4;overflow=hidden;rotatable=0;points=[[0,0.5],[1,0.5]];portConstraint=eastwest;whiteSpace=wrap;html=1;" parent="PhZd0l24GyQ8YQdEIMDO-9" vertex="1">
          <mxGeometry y="26" width="400" height="34" as="geometry" />
        </mxCell>
        <mxCell id="PhZd0l24GyQ8YQdEIMDO-11" value="" style="line;strokeWidth=1;fillColor=none;align=left;verticalAlign=middle;spacingTop=-1;spacingLeft=3;spacingRight=3;rotatable=0;labelPosition=right;points=[];portConstraint=eastwest;strokeColor=inherit;" parent="PhZd0l24GyQ8YQdEIMDO-9" vertex="1">
          <mxGeometry y="60" width="400" height="8" as="geometry" />
        </mxCell>
        <mxCell id="PhZd0l24GyQ8YQdEIMDO-12" value="&lt;p style=&quot;margin: 0px 0px 0px 4px;&quot;&gt;+ __init__(Path): None&lt;/p&gt;&lt;p style=&quot;margin: 0px 0px 0px 4px;&quot;&gt;+ add_property(str, str | int | float | bool | list | tuple | dict | None): None&lt;br&gt;&lt;/p&gt;&lt;p style=&quot;margin: 0px 0px 0px 4px;&quot;&gt;+&amp;nbsp;get_property(str): str | int | float | bool | list | tuple | dict | None&lt;/p&gt;&lt;p style=&quot;margin: 0px 0px 0px 4px;&quot;&gt;+&amp;nbsp;store_defaults(): None&lt;/p&gt;&lt;p style=&quot;margin: 0px 0px 0px 4px;&quot;&gt;+&amp;nbsp;load_defaults(): None&lt;/p&gt;" style="text;strokeColor=none;fillColor=none;align=left;verticalAlign=top;spacingLeft=4;spacingRight=4;overflow=hidden;rotatable=0;points=[[0,0.5],[1,0.5]];portConstraint=eastwest;whiteSpace=wrap;html=1;" parent="PhZd0l24GyQ8YQdEIMDO-9" vertex="1">
          <mxGeometry y="68" width="400" height="92" as="geometry" />
        </mxCell>
        <mxCell id="PhZd0l24GyQ8YQdEIMDO-18" value="PDFProcessor" style="swimlane;fontStyle=1;align=center;verticalAlign=top;childLayout=stackLayout;horizontal=1;startSize=26;horizontalStack=0;resizeParent=1;resizeParentMax=0;resizeLast=0;collapsible=1;marginBottom=0;whiteSpace=wrap;html=1;" parent="WIyWlLk6GJQsqaUBKTNV-1" vertex="1">
          <mxGeometry x="1120" y="760" width="460" height="60" as="geometry">
            <mxRectangle x="1120" y="760" width="150" height="30" as="alternateBounds" />
          </mxGeometry>
        </mxCell>
        <mxCell id="PhZd0l24GyQ8YQdEIMDO-21" value="&lt;p style=&quot;margin: 0px 0px 0px 4px;&quot;&gt;+&amp;nbsp;&lt;span style=&quot;background-color: initial;&quot;&gt;stamp_pdf_pages&lt;/span&gt;&lt;span style=&quot;background-color: initial;&quot;&gt;(Path, Path, Path,&amp;nbsp;&lt;/span&gt;&lt;span style=&quot;background-color: initial;&quot;&gt;Union[Literal[&quot;ALL&quot;], list[int]] = &quot;ALL&quot;&lt;/span&gt;&lt;span style=&quot;background-color: initial;&quot;&gt;): None&lt;/span&gt;&lt;/p&gt;" style="text;strokeColor=none;fillColor=none;align=left;verticalAlign=top;spacingLeft=4;spacingRight=4;overflow=hidden;rotatable=0;points=[[0,0.5],[1,0.5]];portConstraint=eastwest;whiteSpace=wrap;html=1;" parent="PhZd0l24GyQ8YQdEIMDO-18" vertex="1">
          <mxGeometry y="26" width="460" height="34" as="geometry" />
        </mxCell>
        <mxCell id="PhZd0l24GyQ8YQdEIMDO-23" value="ErrorLevel(Enum)" style="swimlane;fontStyle=1;align=center;verticalAlign=top;childLayout=stackLayout;horizontal=1;startSize=26;horizontalStack=0;resizeParent=1;resizeParentMax=0;resizeLast=0;collapsible=1;marginBottom=0;whiteSpace=wrap;html=1;" parent="WIyWlLk6GJQsqaUBKTNV-1" vertex="1">
          <mxGeometry x="1025" y="1220" width="130" height="70" as="geometry">
            <mxRectangle x="40" y="420" width="150" height="30" as="alternateBounds" />
          </mxGeometry>
        </mxCell>
        <mxCell id="PhZd0l24GyQ8YQdEIMDO-24" value="&lt;p style=&quot;margin: 0px 0px 0px 4px;&quot;&gt;+ WARNING: auto()&lt;/p&gt;&lt;p style=&quot;margin: 0px 0px 0px 4px;&quot;&gt;+ ERROR: auto()&lt;/p&gt;" style="text;strokeColor=none;fillColor=none;align=left;verticalAlign=top;spacingLeft=4;spacingRight=4;overflow=hidden;rotatable=0;points=[[0,0.5],[1,0.5]];portConstraint=eastwest;whiteSpace=wrap;html=1;" parent="PhZd0l24GyQ8YQdEIMDO-23" vertex="1">
          <mxGeometry y="26" width="130" height="44" as="geometry" />
        </mxCell>
        <mxCell id="PhZd0l24GyQ8YQdEIMDO-25" value="DisplayableError(Exception)" style="swimlane;fontStyle=1;align=center;verticalAlign=top;childLayout=stackLayout;horizontal=1;startSize=26;horizontalStack=0;resizeParent=1;resizeParentMax=0;resizeLast=0;collapsible=1;marginBottom=0;whiteSpace=wrap;html=1;" parent="WIyWlLk6GJQsqaUBKTNV-1" vertex="1">
          <mxGeometry x="875" y="1004" width="430" height="150" as="geometry">
            <mxRectangle x="875" y="1004" width="150" height="30" as="alternateBounds" />
          </mxGeometry>
        </mxCell>
        <mxCell id="PhZd0l24GyQ8YQdEIMDO-26" value="+ error_level: ErrorLevel&lt;div&gt;+ raw_msg: str&lt;/div&gt;&lt;div&gt;+ detail_msg: str | None = None&lt;/div&gt;&lt;div&gt;+ cause: Exception | None = None&lt;/div&gt;" style="text;strokeColor=none;fillColor=none;align=left;verticalAlign=top;spacingLeft=4;spacingRight=4;overflow=hidden;rotatable=0;points=[[0,0.5],[1,0.5]];portConstraint=eastwest;whiteSpace=wrap;html=1;" parent="PhZd0l24GyQ8YQdEIMDO-25" vertex="1">
          <mxGeometry y="26" width="430" height="74" as="geometry" />
        </mxCell>
        <mxCell id="PhZd0l24GyQ8YQdEIMDO-27" value="" style="line;strokeWidth=1;fillColor=none;align=left;verticalAlign=middle;spacingTop=-1;spacingLeft=3;spacingRight=3;rotatable=0;labelPosition=right;points=[];portConstraint=eastwest;strokeColor=inherit;" parent="PhZd0l24GyQ8YQdEIMDO-25" vertex="1">
          <mxGeometry y="100" width="430" height="8" as="geometry" />
        </mxCell>
        <mxCell id="PhZd0l24GyQ8YQdEIMDO-28" value="&lt;p style=&quot;margin: 0px 0px 0px 4px;&quot;&gt;+ __init__(ErrorLevel, str, str | None = None, Exception | None = None): None&lt;/p&gt;&lt;p style=&quot;margin: 0px 0px 0px 4px;&quot;&gt;+ __str__(): str&lt;/p&gt;" style="text;strokeColor=none;fillColor=none;align=left;verticalAlign=top;spacingLeft=4;spacingRight=4;overflow=hidden;rotatable=0;points=[[0,0.5],[1,0.5]];portConstraint=eastwest;whiteSpace=wrap;html=1;" parent="PhZd0l24GyQ8YQdEIMDO-25" vertex="1">
          <mxGeometry y="108" width="430" height="42" as="geometry" />
        </mxCell>
        <mxCell id="PhZd0l24GyQ8YQdEIMDO-30" value="" style="endArrow=open;endFill=1;endSize=12;html=1;rounded=0;entryX=0;entryY=0.5;entryDx=0;entryDy=0;exitX=1;exitY=0.5;exitDx=0;exitDy=0;" parent="WIyWlLk6GJQsqaUBKTNV-1" source="dMBVIur_Aa2STcFH-dJI-1" target="dMBVIur_Aa2STcFH-dJI-18" edge="1">
          <mxGeometry width="160" relative="1" as="geometry">
            <mxPoint x="580" y="618" as="sourcePoint" />
            <mxPoint x="969" y="488" as="targetPoint" />
            <Array as="points">
              <mxPoint x="759" y="618" />
              <mxPoint x="759" y="550" />
            </Array>
          </mxGeometry>
        </mxCell>
        <mxCell id="PhZd0l24GyQ8YQdEIMDO-31" value="1" style="edgeLabel;html=1;align=center;verticalAlign=middle;resizable=0;points=[];" parent="PhZd0l24GyQ8YQdEIMDO-30" vertex="1" connectable="0">
          <mxGeometry x="-0.1251" y="1" relative="1" as="geometry">
            <mxPoint x="-182" y="-2" as="offset" />
          </mxGeometry>
        </mxCell>
        <mxCell id="PhZd0l24GyQ8YQdEIMDO-32" value="1" style="edgeLabel;html=1;align=center;verticalAlign=middle;resizable=0;points=[];" parent="PhZd0l24GyQ8YQdEIMDO-30" vertex="1" connectable="0">
          <mxGeometry x="0.8061" y="1" relative="1" as="geometry">
            <mxPoint x="22" y="13" as="offset" />
          </mxGeometry>
        </mxCell>
        <mxCell id="PhZd0l24GyQ8YQdEIMDO-33" value="is handled by" style="edgeLabel;html=1;align=center;verticalAlign=middle;resizable=0;points=[];" parent="PhZd0l24GyQ8YQdEIMDO-30" vertex="1" connectable="0">
          <mxGeometry x="0.7722" relative="1" as="geometry">
            <mxPoint x="1" y="-15" as="offset" />
          </mxGeometry>
        </mxCell>
        <mxCell id="PhZd0l24GyQ8YQdEIMDO-34" value="handles" style="edgeLabel;html=1;align=center;verticalAlign=middle;resizable=0;points=[];" parent="PhZd0l24GyQ8YQdEIMDO-30" vertex="1" connectable="0">
          <mxGeometry x="-0.8363" y="1" relative="1" as="geometry">
            <mxPoint x="-8" y="12" as="offset" />
          </mxGeometry>
        </mxCell>
        <mxCell id="PhZd0l24GyQ8YQdEIMDO-35" value="" style="endArrow=open;endFill=1;endSize=12;html=1;rounded=0;exitX=0.5;exitY=1;exitDx=0;exitDy=0;entryX=0.5;entryY=0;entryDx=0;entryDy=0;" parent="WIyWlLk6GJQsqaUBKTNV-1" source="dMBVIur_Aa2STcFH-dJI-18" target="PhZd0l24GyQ8YQdEIMDO-9" edge="1">
          <mxGeometry width="160" relative="1" as="geometry">
            <mxPoint x="1080" y="700" as="sourcePoint" />
            <mxPoint x="910" y="720" as="targetPoint" />
            <Array as="points">
              <mxPoint x="1130" y="720" />
              <mxPoint x="840" y="720" />
            </Array>
          </mxGeometry>
        </mxCell>
        <mxCell id="PhZd0l24GyQ8YQdEIMDO-40" value="stores" style="edgeLabel;html=1;align=center;verticalAlign=middle;resizable=0;points=[];" parent="PhZd0l24GyQ8YQdEIMDO-35" vertex="1" connectable="0">
          <mxGeometry x="0.077" y="2" relative="1" as="geometry">
            <mxPoint x="-95" y="-18" as="offset" />
          </mxGeometry>
        </mxCell>
        <mxCell id="PhZd0l24GyQ8YQdEIMDO-41" value="is stored by" style="edgeLabel;html=1;align=center;verticalAlign=middle;resizable=0;points=[];" parent="PhZd0l24GyQ8YQdEIMDO-35" vertex="1" connectable="0">
          <mxGeometry x="-0.2866" relative="1" as="geometry">
            <mxPoint x="56" y="15" as="offset" />
          </mxGeometry>
        </mxCell>
        <mxCell id="PhZd0l24GyQ8YQdEIMDO-42" value="1" style="edgeLabel;html=1;align=center;verticalAlign=middle;resizable=0;points=[];" parent="PhZd0l24GyQ8YQdEIMDO-35" vertex="1" connectable="0">
          <mxGeometry x="-0.3775" y="-1" relative="1" as="geometry">
            <mxPoint x="64" y="-15" as="offset" />
          </mxGeometry>
        </mxCell>
        <mxCell id="PhZd0l24GyQ8YQdEIMDO-43" value="1" style="edgeLabel;html=1;align=center;verticalAlign=middle;resizable=0;points=[];" parent="PhZd0l24GyQ8YQdEIMDO-35" vertex="1" connectable="0">
          <mxGeometry x="0.4941" y="-2" relative="1" as="geometry">
            <mxPoint x="-36" y="15" as="offset" />
          </mxGeometry>
        </mxCell>
        <mxCell id="PhZd0l24GyQ8YQdEIMDO-36" value="" style="endArrow=open;endFill=1;endSize=12;html=1;rounded=0;exitX=0.5;exitY=1;exitDx=0;exitDy=0;entryX=0.5;entryY=0;entryDx=0;entryDy=0;" parent="WIyWlLk6GJQsqaUBKTNV-1" source="dMBVIur_Aa2STcFH-dJI-18" target="PhZd0l24GyQ8YQdEIMDO-18" edge="1">
          <mxGeometry width="160" relative="1" as="geometry">
            <mxPoint x="820" y="640" as="sourcePoint" />
            <mxPoint x="980" y="640" as="targetPoint" />
            <Array as="points">
              <mxPoint x="1130" y="720" />
              <mxPoint x="1350" y="720" />
            </Array>
          </mxGeometry>
        </mxCell>
        <mxCell id="PhZd0l24GyQ8YQdEIMDO-44" value="is used by" style="edgeLabel;html=1;align=center;verticalAlign=middle;resizable=0;points=[];" parent="PhZd0l24GyQ8YQdEIMDO-36" vertex="1" connectable="0">
          <mxGeometry x="0.3122" y="4" relative="1" as="geometry">
            <mxPoint x="-124" y="19" as="offset" />
          </mxGeometry>
        </mxCell>
        <mxCell id="PhZd0l24GyQ8YQdEIMDO-46" value="1" style="edgeLabel;html=1;align=center;verticalAlign=middle;resizable=0;points=[];" parent="PhZd0l24GyQ8YQdEIMDO-36" vertex="1" connectable="0">
          <mxGeometry x="-0.552" relative="1" as="geometry">
            <mxPoint x="-16" y="-16" as="offset" />
          </mxGeometry>
        </mxCell>
        <mxCell id="PhZd0l24GyQ8YQdEIMDO-47" value="uses" style="edgeLabel;html=1;align=center;verticalAlign=middle;resizable=0;points=[];" parent="PhZd0l24GyQ8YQdEIMDO-36" vertex="1" connectable="0">
          <mxGeometry x="0.6345" y="3" relative="1" as="geometry">
            <mxPoint x="3" y="-13" as="offset" />
          </mxGeometry>
        </mxCell>
        <mxCell id="PhZd0l24GyQ8YQdEIMDO-48" value="1" style="edgeLabel;html=1;align=center;verticalAlign=middle;resizable=0;points=[];" parent="PhZd0l24GyQ8YQdEIMDO-36" vertex="1" connectable="0">
          <mxGeometry x="0.6345" y="5" relative="1" as="geometry">
            <mxPoint x="11" y="18" as="offset" />
          </mxGeometry>
        </mxCell>
        <mxCell id="PhZd0l24GyQ8YQdEIMDO-49" value="" style="endArrow=open;endFill=1;endSize=12;html=1;rounded=0;entryX=0.5;entryY=0;entryDx=0;entryDy=0;exitX=0.5;exitY=1;exitDx=0;exitDy=0;" parent="WIyWlLk6GJQsqaUBKTNV-1" source="PhZd0l24GyQ8YQdEIMDO-9" target="PhZd0l24GyQ8YQdEIMDO-25" edge="1">
          <mxGeometry width="160" relative="1" as="geometry">
            <mxPoint x="820" y="980" as="sourcePoint" />
            <mxPoint x="1020" y="840" as="targetPoint" />
            <Array as="points">
              <mxPoint x="840" y="960" />
              <mxPoint x="1090" y="960" />
            </Array>
          </mxGeometry>
        </mxCell>
        <mxCell id="PhZd0l24GyQ8YQdEIMDO-51" value="raises" style="edgeLabel;html=1;align=center;verticalAlign=middle;resizable=0;points=[];" parent="PhZd0l24GyQ8YQdEIMDO-49" vertex="1" connectable="0">
          <mxGeometry x="0.5505" y="2" relative="1" as="geometry">
            <mxPoint x="8" y="-15" as="offset" />
          </mxGeometry>
        </mxCell>
        <mxCell id="PhZd0l24GyQ8YQdEIMDO-57" value="1" style="edgeLabel;html=1;align=center;verticalAlign=middle;resizable=0;points=[];" parent="PhZd0l24GyQ8YQdEIMDO-49" vertex="1" connectable="0">
          <mxGeometry x="-0.8737" y="3" relative="1" as="geometry">
            <mxPoint x="10" y="-4" as="offset" />
          </mxGeometry>
        </mxCell>
        <mxCell id="PhZd0l24GyQ8YQdEIMDO-50" value="" style="endArrow=open;endFill=1;endSize=12;html=1;rounded=0;entryX=0.5;entryY=0;entryDx=0;entryDy=0;exitX=0.5;exitY=1;exitDx=0;exitDy=0;" parent="WIyWlLk6GJQsqaUBKTNV-1" source="PhZd0l24GyQ8YQdEIMDO-18" target="PhZd0l24GyQ8YQdEIMDO-25" edge="1">
          <mxGeometry width="160" relative="1" as="geometry">
            <mxPoint x="1340" y="900" as="sourcePoint" />
            <mxPoint x="1220" y="860" as="targetPoint" />
            <Array as="points">
              <mxPoint x="1350" y="960" />
              <mxPoint x="1090" y="960" />
            </Array>
          </mxGeometry>
        </mxCell>
        <mxCell id="PhZd0l24GyQ8YQdEIMDO-53" value="1" style="edgeLabel;html=1;align=center;verticalAlign=middle;resizable=0;points=[];" parent="PhZd0l24GyQ8YQdEIMDO-50" vertex="1" connectable="0">
          <mxGeometry x="0.5379" y="-2" relative="1" as="geometry">
            <mxPoint x="-48" y="14" as="offset" />
          </mxGeometry>
        </mxCell>
        <mxCell id="PhZd0l24GyQ8YQdEIMDO-55" value="is raised by" style="edgeLabel;html=1;align=center;verticalAlign=middle;resizable=0;points=[];" parent="PhZd0l24GyQ8YQdEIMDO-50" vertex="1" connectable="0">
          <mxGeometry x="-0.9053" relative="1" as="geometry">
            <mxPoint x="37" as="offset" />
          </mxGeometry>
        </mxCell>
        <mxCell id="PhZd0l24GyQ8YQdEIMDO-58" value="1" style="edgeLabel;html=1;align=center;verticalAlign=middle;resizable=0;points=[];" parent="PhZd0l24GyQ8YQdEIMDO-50" vertex="1" connectable="0">
          <mxGeometry x="-0.8987" y="1" relative="1" as="geometry">
            <mxPoint x="-13" as="offset" />
          </mxGeometry>
        </mxCell>
        <mxCell id="PhZd0l24GyQ8YQdEIMDO-52" value="raises" style="edgeLabel;html=1;align=center;verticalAlign=middle;resizable=0;points=[];" parent="WIyWlLk6GJQsqaUBKTNV-1" vertex="1" connectable="0">
          <mxGeometry x="1114.8333333333335" y="943" as="geometry" />
        </mxCell>
        <mxCell id="PhZd0l24GyQ8YQdEIMDO-54" value="1" style="edgeLabel;html=1;align=center;verticalAlign=middle;resizable=0;points=[];" parent="WIyWlLk6GJQsqaUBKTNV-1" vertex="1" connectable="0">
          <mxGeometry x="1075.666666666667" y="971.0000000000002" as="geometry">
            <mxPoint x="-1" y="1" as="offset" />
          </mxGeometry>
        </mxCell>
        <mxCell id="PhZd0l24GyQ8YQdEIMDO-56" value="is raised by" style="edgeLabel;html=1;align=center;verticalAlign=middle;resizable=0;points=[];" parent="WIyWlLk6GJQsqaUBKTNV-1" vertex="1" connectable="0">
          <mxGeometry x="802" y="936.0033333333334" as="geometry" />
        </mxCell>
        <mxCell id="PhZd0l24GyQ8YQdEIMDO-62" value="" style="endArrow=open;endFill=1;endSize=12;html=1;rounded=0;exitX=0.5;exitY=1;exitDx=0;exitDy=0;entryX=0.5;entryY=0;entryDx=0;entryDy=0;" parent="WIyWlLk6GJQsqaUBKTNV-1" edge="1">
          <mxGeometry width="160" relative="1" as="geometry">
            <mxPoint x="1089" y="1154" as="sourcePoint" />
            <mxPoint x="1089" y="1220" as="targetPoint" />
          </mxGeometry>
        </mxCell>
        <mxCell id="PhZd0l24GyQ8YQdEIMDO-63" value="sets" style="edgeLabel;html=1;align=center;verticalAlign=middle;resizable=0;points=[];" parent="PhZd0l24GyQ8YQdEIMDO-62" vertex="1" connectable="0">
          <mxGeometry x="0.0606" y="6" relative="1" as="geometry">
            <mxPoint x="13" y="7" as="offset" />
          </mxGeometry>
        </mxCell>
        <mxCell id="PhZd0l24GyQ8YQdEIMDO-64" value="1" style="edgeLabel;html=1;align=center;verticalAlign=middle;resizable=0;points=[];" parent="PhZd0l24GyQ8YQdEIMDO-62" vertex="1" connectable="0">
          <mxGeometry x="0.2121" relative="1" as="geometry">
            <mxPoint x="-13" y="2" as="offset" />
          </mxGeometry>
        </mxCell>
        <mxCell id="PhZd0l24GyQ8YQdEIMDO-65" value="is set by" style="edgeLabel;html=1;align=center;verticalAlign=middle;resizable=0;points=[];" parent="PhZd0l24GyQ8YQdEIMDO-62" vertex="1" connectable="0">
          <mxGeometry x="-0.6431" y="-2" relative="1" as="geometry">
            <mxPoint x="-28" y="2" as="offset" />
          </mxGeometry>
        </mxCell>
        <mxCell id="PhZd0l24GyQ8YQdEIMDO-66" value="1" style="edgeLabel;html=1;align=center;verticalAlign=middle;resizable=0;points=[];" parent="PhZd0l24GyQ8YQdEIMDO-62" vertex="1" connectable="0">
          <mxGeometry x="-0.6431" relative="1" as="geometry">
            <mxPoint x="12" y="3" as="offset" />
          </mxGeometry>
        </mxCell>
      </root>
    </mxGraphModel>
  </diagram>
</mxfile>
